<svg xmlns="http://www.w3.org/2000/svg" width="860" height="260" viewBox="0 0 860 260" role="img" aria-labelledby="title description">
<title id="title">Repository activity — Git clones</title>
<desc id="description">Sep 18–Oct 01, 2026: 161 Git clones, including 19 yesterday. Today is partial. Clones are not unique users or app downloads. Updated Oct 01, 2026 16:35 UTC.</desc>
<style>
.card{fill:#fff;stroke:#d1d9e0}.main{fill:#1f2328}.muted{fill:#59636e}
.grid{stroke:#d1d9e0;stroke-opacity:.65}.bar{fill:#5798e8}.zero{fill:#d1d9e0}
text{font-family:-apple-system,BlinkMacSystemFont,"Segoe UI",Helvetica,Arial,sans-serif}
@media(prefers-color-scheme:dark){.card{fill:#0d1117;stroke:#30363d}.main{fill:#f0f6fc}.muted{fill:#9198a1}.grid{stroke:#30363d}.bar{fill:#79aff4}.zero{fill:#30363d}}
</style>
<rect class="card" x=".5" y=".5" width="859" height="259" rx="12"/>
<text class="main" x="24" y="34" font-size="17" font-weight="600">Repository activity</text>
<text class="muted" x="24" y="56" font-size="12">Git clones · Sep 18–Oct 01, 2026 · UTC</text>
<text class="main" x="596" y="35" font-size="26" font-weight="600">19</text>
<text class="muted" x="596" y="55" font-size="11">Yesterday</text>
<text class="main" x="729" y="35" font-size="26" font-weight="600">161</text>
<text class="muted" x="729" y="55" font-size="11">Last 14 days</text>
<line class="grid" x1="24" x2="807" y1="190" y2="190"/>
<text class="muted" x="818" y="194" font-size="10">0</text>
<line class="grid" x1="24" x2="807" y1="139" y2="139"/>
<text class="muted" x="818" y="143" font-size="10">20</text>
<line class="grid" x1="24" x2="807" y1="88" y2="88"/>
<text class="muted" x="818" y="92" font-size="10">40</text>
<rect class="zero" opacity="1" x="28" y="188.00" width="34" height="2.00" rx="3"/>
<text class="muted" x="45" y="211" text-anchor="middle" font-size="10">18 Sep</text>
<rect class="zero" opacity="1" x="84" y="188.00" width="34" height="2.00" rx="3"/>
<text class="muted" x="101" y="211" text-anchor="middle" font-size="10">19 Sep</text>
<rect class="zero" opacity="1" x="140" y="188.00" width="34" height="2.00" rx="3"/>
<text class="muted" x="157" y="211" text-anchor="middle" font-size="10">20 Sep</text>
<rect class="zero" opacity="1" x="196" y="188.00" width="34" height="2.00" rx="3"/>
<text class="muted" x="213" y="211" text-anchor="middle" font-size="10">21 Sep</text>
<rect class="bar" opacity="1" x="252" y="159.40" width="34" height="30.60" rx="3"/>
<text class="main" x="269" y="152.40" text-anchor="middle" font-size="10">12</text>
<text class="muted" x="269" y="211" text-anchor="middle" font-size="10">22 Sep</text>
<rect class="bar" opacity="1" x="308" y="146.65" width="34" height="43.35" rx="3"/>
<text class="main" x="325" y="139.65" text-anchor="middle" font-size="10">17</text>
<text class="muted" x="325" y="211" text-anchor="middle" font-size="10">23 Sep</text>
<rect class="bar" opacity="1" x="364" y="116.05" width="34" height="73.95" rx="3"/>
<text class="main" x="381" y="109.05" text-anchor="middle" font-size="10">29</text>
<text class="muted" x="381" y="211" text-anchor="middle" font-size="10">24 Sep</text>
<rect class="bar" opacity="1" x="420" y="164.50" width="34" height="25.50" rx="3"/>
<text class="main" x="437" y="157.50" text-anchor="middle" font-size="10">10</text>
<text class="muted" x="437" y="211" text-anchor="middle" font-size="10">25 Sep</text>
<rect class="bar" opacity="1" x="476" y="100.75" width="34" height="89.25" rx="3"/>
<text class="main" x="493" y="93.75" text-anchor="middle" font-size="10">35</text>
<text class="muted" x="493" y="211" text-anchor="middle" font-size="10">26 Sep</text>
<rect class="bar" opacity="1" x="532" y="179.80" width="34" height="10.20" rx="3"/>
<text class="main" x="549" y="172.80" text-anchor="middle" font-size="10">4</text>
<text class="muted" x="549" y="211" text-anchor="middle" font-size="10">27 Sep</text>
<rect class="bar" opacity="1" x="588" y="146.65" width="34" height="43.35" rx="3"/>
<text class="main" x="605" y="139.65" text-anchor="middle" font-size="10">17</text>
<text class="muted" x="605" y="211" text-anchor="middle" font-size="10">28 Sep</text>
<rect class="bar" opacity="1" x="644" y="144.10" width="34" height="45.90" rx="3"/>
<text class="main" x="661" y="137.10" text-anchor="middle" font-size="10">18</text>
<text class="muted" x="661" y="211" text-anchor="middle" font-size="10">29 Sep</text>
<rect class="bar" opacity="1" x="700" y="141.55" width="34" height="48.45" rx="3"/>
<text class="main" x="717" y="134.55" text-anchor="middle" font-size="10">19</text>
<text class="muted" x="717" y="211" text-anchor="middle" font-size="10">30 Sep</text>
<rect class="zero" opacity=".65" x="756" y="188.00" width="34" height="2.00" rx="3"/>
<text class="muted" x="773" y="211" text-anchor="middle" font-size="10">Today</text>
<text class="muted" x="24" y="240" font-size="11">Updated Oct 01, 2026 16:35 UTC · Today is partial · Clones aren’t unique users.</text></svg>
